<?xml version="1.0" encoding="UTF-8" standalone="no"?>
<!-- Created with Inkscape (http://www.inkscape.org/) -->

<svg
   xmlns:dc="http://purl.org/dc/elements/1.1/"
   xmlns:cc="http://creativecommons.org/ns#"
   xmlns:rdf="http://www.w3.org/1999/02/22-rdf-syntax-ns#"
   xmlns:svg="http://www.w3.org/2000/svg"
   xmlns="http://www.w3.org/2000/svg"
   xmlns:sodipodi="http://sodipodi.sourceforge.net/DTD/sodipodi-0.dtd"
   xmlns:inkscape="http://www.inkscape.org/namespaces/inkscape"
   id="svg2"
   version="1.1"
   inkscape:version="0.91 r13725"
   width="308"
   height="308"
   viewBox="0 0 308 308"
   sodipodi:docname="500_F_127925797_K0jUT9DsgyIDBXwRD2Daz4YKIQiCJEeT.svg">
  <metadata
     id="metadata8">
    <rdf:RDF>
      <cc:Work
         rdf:about="">
        <dc:format>image/svg+xml</dc:format>
        <dc:type
           rdf:resource="http://purl.org/dc/dcmitype/StillImage" />
        <dc:title></dc:title>
      </cc:Work>
    </rdf:RDF>
  </metadata>
  <defs
     id="defs6" />
  <sodipodi:namedview
     pagecolor="#ffffff"
     bordercolor="#666666"
     borderopacity="1"
     objecttolerance="10"
     gridtolerance="10"
     guidetolerance="10"
     inkscape:pageopacity="0"
     inkscape:pageshadow="2"
     inkscape:window-width="1600"
     inkscape:window-height="849"
     id="namedview4"
     showgrid="false"
     inkscape:zoom="0.84"
     inkscape:cx="320.17756"
     inkscape:cy="310.71757"
     inkscape:window-x="0"
     inkscape:window-y="0"
     inkscape:window-maximized="1"
     inkscape:current-layer="svg2">
    <inkscape:grid
       type="xygrid"
       id="grid3340" />
  </sodipodi:namedview>
  <path
     style="fill:#000000"
     d="m 115.79955,301.29955 c -2.25793,-2.25792 -2.30235,-2.56022 -2.4666,-16.78571 -0.0675,-5.84375 -0.5951,-11.35619 -1.1725,-12.24986 -0.5774,-0.89368 -5.82444,-3.83074 -11.66008,-6.52682 -5.835644,-2.69607 -15.048294,-8.01176 -20.472534,-11.81263 -6.01458,-4.21453 -11.17115,-6.91069 -13.2171,-6.91069 -1.84516,0 -7.74326,2.53125 -13.10691,5.625 -5.36365,3.09375 -10.55973,5.625 -11.54685,5.625 -3.62772,0 -7.23131,-4.86447 -20.18163,-27.24311 C 4.0289558,200.0087 4.2085257,200.41308 6.6967958,196.6155 c 1.10035,-1.67935 6.4911192,-5.64347 11.9794802,-8.80916 5.48838,-3.16569 10.2949,-6.75155 10.68118,-7.96859 0.38626,-1.21704 0.22277,-7.40966 -0.36333,-13.76139 -0.599,-6.49148 -0.58436,-16.78411 0.0334,-23.50461 0.65626,-7.139 0.63915,-12.77782 -0.0425,-13.99578 -0.62783,-1.12188 -5.55901,-4.64948 -10.95818,-7.83911 -15.9438902,-9.41906 -16.0098202,-7.70522 1.47267,-38.27989 15.07026,-26.35587 18.85298,-31.69313 22.46218,-31.69313 1.09453,0 6.3785,2.53125 11.74215,5.625 5.36365,3.09375 11.26175,5.625 13.10691,5.625 2.04595,0 7.20252,-2.69616 13.21709,-6.91069 5.42425,-3.80087 14.6369,-9.11656 20.472544,-11.81264 5.83564,-2.69607 11.08199,-5.63313 11.65855,-6.52681 0.57656,-0.89367 1.15953,-6.40611 1.29546,-12.24986 0.13595,-5.84375 0.27727,-11.5692 0.31403,-12.72321 0.0367,-1.15403 0.95077,-2.98215 2.03114,-4.0625 2.94776,-2.94777 65.62366,-2.94777 68.57142,0 1.46107,1.46106 1.99621,4.74346 2.08889,12.8125 0.18947,16.49608 7.8e-4,16.1897 14.3803,23.34821 6.90502,3.4375 16.27012,8.92187 20.81134,12.1875 5.01676,3.6076 9.59217,5.9375 11.65992,5.9375 1.87175,0 7.79161,-2.53125 13.15526,-5.625 5.36365,-3.09375 10.55974,-5.625 11.54685,-5.625 3.62773,0 7.23132,4.86447 20.18164,27.24311 17.94639,31.01203 17.76681,30.60765 15.27855,34.40523 -1.10035,1.67935 -6.49112,5.64347 -11.97949,8.80916 -5.48837,3.16569 -10.30648,6.78807 -10.70692,8.04975 -0.40044,1.26167 -0.19386,7.45742 0.45905,13.76835 0.7495,7.24446 0.7495,15.70434 0,22.9488 -0.65291,6.31092 -0.85949,12.50667 -0.45905,13.76835 0.40044,1.26167 5.19189,4.86867 10.64765,8.01556 9.34112,5.38796 13.6503,9.30084 13.6503,12.39494 0,1.36467 -23.8339,43.55722 -29.45083,52.13602 -4.61603,7.05014 -7.41442,7.11504 -18.98638,0.44034 -5.46342,-3.15129 -11.51459,-5.72961 -13.44706,-5.72961 -2.20404,0 -6.11828,1.98001 -10.50216,5.3125 -3.84373,2.92187 -13.14074,8.40625 -20.66003,12.1875 -15.60599,7.84782 -16.29165,8.85097 -15.1886,22.22149 0.65023,7.8817 -0.64419,13.79052 -3.40566,15.54643 -0.81636,0.51909 -15.9285,0.95242 -33.58251,0.96294 -27.53075,0.0164 -32.37773,-0.26037 -34.0625,-1.94515 z"
     id="path3338"
     inkscape:connector-curvature="0"
     sodipodi:nodetypes="ssssssssssscsscssssssssscssssssssssssssssssssssssss" />
  <circle
     style="fill:#ffffff;fill-rule:evenodd;stroke:#000000;stroke-width:0.96002996px;stroke-linecap:butt;stroke-linejoin:miter;stroke-opacity:1"
     id="path3342"
     cx="149.62337"
     cy="153.14288"
     r="57.747231" />
</svg>
